<?xml version="1.0" encoding="UTF-8" standalone="no"?>
<!-- Created with Inkscape (http://www.inkscape.org/) -->

<svg
   xmlns:osb="http://www.openswatchbook.org/uri/2009/osb"
   xmlns:dc="http://purl.org/dc/elements/1.1/"
   xmlns:cc="http://creativecommons.org/ns#"
   xmlns:rdf="http://www.w3.org/1999/02/22-rdf-syntax-ns#"
   xmlns:svg="http://www.w3.org/2000/svg"
   xmlns="http://www.w3.org/2000/svg"
   xmlns:xlink="http://www.w3.org/1999/xlink"
   xmlns:sodipodi="http://sodipodi.sourceforge.net/DTD/sodipodi-0.dtd"
   xmlns:inkscape="http://www.inkscape.org/namespaces/inkscape"
   id="svg2"
   version="1.1"
   inkscape:version="0.48.4 r9939"
   width="471.98001"
   height="471.98001"
   xml:space="preserve"
   sodipodi:docname="OTHR_laTeX_Logo.svg"
   inkscape:export-filename="/home/michael/git/OTH_R_tex/texmf_OTHR/tex/latex/logos/OTHR_laTeX_Logo.png"
   inkscape:export-xdpi="90"
   inkscape:export-ydpi="90"><metadata
     id="metadata8"><rdf:RDF><cc:Work
         rdf:about=""><dc:format>image/svg+xml</dc:format><dc:type
           rdf:resource="http://purl.org/dc/dcmitype/StillImage" /><dc:title></dc:title></cc:Work></rdf:RDF></metadata><defs
     id="defs6"><linearGradient
       id="linearGradient5367"
       osb:paint="solid"><stop
         style="stop-color:#00ff00;stop-opacity:1;"
         offset="0"
         id="stop5369" /></linearGradient><linearGradient
       id="linearGradient3893"
       osb:paint="gradient"><stop
         style="stop-color:#c6c6ad;stop-opacity:1;"
         offset="0"
         id="stop3899" /><stop
         id="stop3905"
         offset="0.13814074"
         style="stop-color:#ffff00;stop-opacity:1;" /><stop
         style="stop-color:#ff6600;stop-opacity:1;"
         offset="0.28077126"
         id="stop3907" /><stop
         id="stop3909"
         offset="0.41612837"
         style="stop-color:#cc1400;stop-opacity:1;" /><stop
         style="stop-color:#6600ff;stop-opacity:1;"
         offset="0.58333421"
         id="stop3911" /><stop
         style="stop-color:#00a6ff;stop-opacity:1;"
         offset="0.72000003"
         id="stop3915" /><stop
         id="stop3927"
         offset="0.86000001"
         style="stop-color:#6600ff;stop-opacity:1;" /><stop
         id="stop3897"
         offset="1"
         style="stop-color:#00e517;stop-opacity:1;" /></linearGradient><clipPath
       clipPathUnits="userSpaceOnUse"
       id="clipPath20"><path
         d="M 0,0 378,0 378,293 0,293 0,0 z"
         id="path22"
         inkscape:connector-curvature="0" /></clipPath><linearGradient
       inkscape:collect="always"
       xlink:href="#linearGradient3893"
       id="linearGradient5387"
       x1="-214.03238"
       y1="-183.49248"
       x2="110.67905"
       y2="-183.49248"
       gradientUnits="userSpaceOnUse" /><linearGradient
       inkscape:collect="always"
       xlink:href="#linearGradient3893"
       id="linearGradient3343"
       gradientUnits="userSpaceOnUse"
       x1="-214.03238"
       y1="-183.49248"
       x2="110.67905"
       y2="-183.49248" /><linearGradient
       inkscape:collect="always"
       xlink:href="#linearGradient3893"
       id="linearGradient3345"
       gradientUnits="userSpaceOnUse"
       x1="-214.03238"
       y1="-183.49248"
       x2="110.67905"
       y2="-183.49248" /><linearGradient
       inkscape:collect="always"
       xlink:href="#linearGradient3893"
       id="linearGradient3347"
       gradientUnits="userSpaceOnUse"
       x1="-214.03238"
       y1="-183.49248"
       x2="110.67905"
       y2="-183.49248" /><linearGradient
       inkscape:collect="always"
       xlink:href="#linearGradient3893"
       id="linearGradient3349"
       gradientUnits="userSpaceOnUse"
       x1="-214.03238"
       y1="-183.49248"
       x2="110.67905"
       y2="-183.49248" /><linearGradient
       inkscape:collect="always"
       xlink:href="#linearGradient3893"
       id="linearGradient3351"
       gradientUnits="userSpaceOnUse"
       x1="-214.03238"
       y1="-183.49248"
       x2="110.67905"
       y2="-183.49248" /></defs><sodipodi:namedview
     pagecolor="#ffffff"
     bordercolor="#666666"
     borderopacity="1"
     objecttolerance="10"
     gridtolerance="10"
     guidetolerance="10"
     inkscape:pageopacity="0"
     inkscape:pageshadow="2"
     inkscape:window-width="1577"
     inkscape:window-height="1001"
     id="namedview4"
     showgrid="false"
     inkscape:zoom="0.64551206"
     inkscape:cx="308.89895"
     inkscape:cy="429.76457"
     inkscape:window-x="0"
     inkscape:window-y="0"
     inkscape:window-maximized="0"
     inkscape:current-layer="layer1" /><g
     id="g10"
     inkscape:groupmode="layer"
     inkscape:label="OTHR_Logo_kurz"
     transform="matrix(1.25,0,0,-1.25,0,471.98)"
     style="opacity:0.7323232"><g
       id="g12" /><g
       id="g14"
       transform="translate(0,40)"><g
         id="g16"
         transform="translate(0,-0.519012)"><g
           id="g18" /><g
           id="g24"><g
             clip-path="url(#clipPath20)"
             id="g26"><g
               id="g28"><path
                 d="m 0,104.027 377.582,0 0,-103.508 L 0,0.519 0,104.027 z"
                 style="fill:#ffffff;fill-opacity:1;fill-rule:nonzero;stroke:none"
                 id="path30"
                 inkscape:connector-curvature="0" /><path
                 d="m 0,293 377.582,0 0,-188.973 L 0,104.027 0,293 z"
                 style="fill:#231f20;fill-opacity:1;fill-rule:nonzero;stroke:none"
                 id="path32"
                 inkscape:connector-curvature="0" /><path
                 d="m 157.965,255.207 74.629,0 0,-7.988 -74.629,0 0,7.988 z"
                 style="fill:#ffffff;fill-opacity:1;fill-rule:nonzero;stroke:none"
                 id="path34"
                 inkscape:connector-curvature="0" /><path
                 d="m 191.285,235.234 7.988,0 0,-93.41 -7.988,0 0,93.41 z"
                 style="fill:#ffffff;fill-opacity:1;fill-rule:nonzero;stroke:none"
                 id="path36"
                 inkscape:connector-curvature="0" /><path
                 d="m 273.258,202.508 46.559,0 0,-7.988 -46.559,0 0,7.988 z"
                 style="fill:#ffffff;fill-opacity:1;fill-rule:nonzero;stroke:none"
                 id="path38"
                 inkscape:connector-curvature="0" /><path
                 d="m 253.285,255.207 7.988,0 0,-113.383 -7.988,0 0,113.383 z"
                 style="fill:#ffffff;fill-opacity:1;fill-rule:nonzero;stroke:none"
                 id="path40"
                 inkscape:connector-curvature="0" /><path
                 d="m 331.801,255.207 7.988,0 0,-113.383 -7.988,0 0,113.383 z"
                 style="fill:#ffffff;fill-opacity:1;fill-rule:nonzero;stroke:none"
                 id="path42"
                 inkscape:connector-curvature="0" /><path
                 d="m 132.875,228.43 c 6.453,-8.262 10.313,-18.645 10.313,-29.914 0,-26.856 -21.848,-48.704 -48.704,-48.704 -11.269,0 -21.652,3.86 -29.914,10.313 l -5.707,-5.703 c 9.739,-7.875 22.125,-12.598 35.621,-12.598 31.313,0 56.692,25.379 56.692,56.692 0,13.496 -4.723,25.882 -12.598,35.617 l -5.703,-5.703"
                 style="fill:#ffffff;fill-opacity:1;fill-rule:nonzero;stroke:none"
                 id="path44"
                 inkscape:connector-curvature="0" /><path
                 d="m 94.484,247.219 c 11.274,0 21.657,-3.864 29.918,-10.317 l 5.703,5.703 c -9.734,7.875 -22.125,12.602 -35.621,12.602 -31.308,0 -56.691,-25.383 -56.691,-56.691 0,-13.496 4.727,-25.887 12.602,-35.621 l 5.699,5.703 c -6.453,8.261 -10.313,18.644 -10.313,29.918 0,26.851 21.848,48.703 48.703,48.703"
                 style="fill:#ffffff;fill-opacity:1;fill-rule:nonzero;stroke:none"
                 id="path46"
                 inkscape:connector-curvature="0" /><path
                 d="m 47.379,55.25 c 1.797,0 2.715,0.402 3.351,1.039 0.641,0.641 1.04,1.559 1.04,2.555 0,0.996 -0.399,1.914 -1.04,2.554 -0.636,0.637 -1.554,1.036 -3.351,1.036 l -5.586,0 0,-7.184 5.586,0 z m -5.586,-3.789 0,-13.168 -3.992,0 0,27.934 9.777,0 c 2.555,0 4.149,-0.602 5.43,-1.637 1.672,-1.356 2.75,-3.434 2.75,-5.746 0,-2.317 -1.078,-4.391 -2.75,-5.746 -0.879,-0.719 -1.879,-1.239 -3.274,-1.477 l 10.016,-13.328 -4.828,0 -9.938,13.168 -3.191,0"
                 style="fill:#231f20;fill-opacity:1;fill-rule:nonzero;stroke:none"
                 id="path48"
                 inkscape:connector-curvature="0" /><path
                 d="m 82.168,55.25 0,-3.789 -9.176,0 0,-9.379 12.367,0 0,-3.789 -16.359,0 0,27.934 15.961,0 0,-3.793 -11.969,0 0,-7.184 9.176,0"
                 style="fill:#231f20;fill-opacity:1;fill-rule:nonzero;stroke:none"
                 id="path50"
                 inkscape:connector-curvature="0" /><path
                 d="m 118.555,43.082 c -2.395,-3.031 -6.543,-5.187 -10.856,-5.187 -8.34,0 -14.48,6.105 -14.48,14.367 0,8.058 6.062,14.363 14.125,14.363 3.988,0 7.777,-1.637 10.215,-4.309 l -2.676,-2.636 c -1.637,1.797 -4.547,3.152 -7.539,3.152 -5.707,0 -10.137,-4.547 -10.137,-10.57 0,-6.309 4.551,-10.574 10.492,-10.574 2.953,0 5.391,1.117 6.863,2.589 l 0,7.184 -7.976,0 0,3.789 11.969,0 0,-12.168"
                 style="fill:#231f20;fill-opacity:1;fill-rule:nonzero;stroke:none"
                 id="path52"
                 inkscape:connector-curvature="0" /><path
                 d="m 143.566,55.25 0,-3.789 -9.175,0 0,-9.379 12.367,0 0,-3.789 -16.36,0 0,27.934 15.961,0 0,-3.793 -11.968,0 0,-7.184 9.175,0"
                 style="fill:#231f20;fill-opacity:1;fill-rule:nonzero;stroke:none"
                 id="path54"
                 inkscape:connector-curvature="0" /><path
                 d="m 161.598,58.805 0,-20.512 -3.993,0 0,27.934 2.793,0 16.758,-20.512 0,20.512 3.992,0 0,-27.934 -2.793,0 -16.757,20.512"
                 style="fill:#231f20;fill-opacity:1;fill-rule:nonzero;stroke:none"
                 id="path56"
                 inkscape:connector-curvature="0" /><path
                 d="m 194.352,45.277 c 1.632,-1.996 3.949,-3.589 6.82,-3.589 2.594,0 4.867,1.671 4.867,4.187 0,4.27 -5.902,4.746 -9.613,7.184 -1.996,1.316 -3.555,3.23 -3.555,6.144 0,4.07 3.594,7.422 8.461,7.422 3.551,0 6.023,-1.559 7.504,-2.793 l -2.356,-2.914 c -1.515,1.277 -3.234,1.914 -4.988,1.914 -2.312,0 -4.629,-1.316 -4.629,-3.75 0,-3.551 5.946,-4.309 9.535,-6.703 1.875,-1.238 3.633,-3.191 3.633,-6.383 0,-4.91 -3.793,-8.101 -8.66,-8.101 -3.828,0 -7.301,1.675 -9.773,4.667 l 2.754,2.715"
                 style="fill:#231f20;fill-opacity:1;fill-rule:nonzero;stroke:none"
                 id="path58"
                 inkscape:connector-curvature="0" /><path
                 d="m 230.934,42.082 c 2.515,0 3.711,0.563 4.589,1.438 0.797,0.839 1.317,1.996 1.317,3.273 0,1.277 -0.52,2.395 -1.317,3.23 -0.878,0.879 -2.074,1.438 -4.589,1.438 l -6.067,0 0,-9.379 6.067,0 z m -1.278,13.168 c 2.239,0 3.196,0.441 3.832,1.16 0.598,0.637 0.957,1.477 0.957,2.434 0,0.957 -0.359,1.797 -0.957,2.433 -0.636,0.719 -1.593,1.157 -3.832,1.157 l -4.789,0 0,-7.184 4.789,0 z m -8.777,-16.957 0,27.934 9.496,0 c 2.715,0 4.43,-0.758 5.746,-1.957 1.438,-1.317 2.317,-3.231 2.317,-5.305 0,-1.918 -0.879,-3.754 -2.196,-4.988 2.633,-1.321 4.586,-4.192 4.586,-7.344 0,-2.594 -1.195,-4.945 -3.07,-6.465 -1.438,-1.195 -3.274,-1.875 -6.106,-1.875 l -10.773,0"
                 style="fill:#231f20;fill-opacity:1;fill-rule:nonzero;stroke:none"
                 id="path60"
                 inkscape:connector-curvature="0" /><path
                 d="m 253.793,41.566 c -1.793,1.954 -2.91,4.547 -2.91,8.297 l 0,16.364 3.988,0 0,-16.563 c 0,-2.633 0.641,-4.266 1.758,-5.504 1.394,-1.555 3.469,-2.472 5.824,-2.472 2.356,0 4.43,0.917 5.824,2.472 1.118,1.238 1.758,2.871 1.758,5.504 l 0,16.563 3.988,0 0,-16.364 c 0,-3.75 -1.117,-6.343 -2.914,-8.297 -2.113,-2.277 -5.222,-3.671 -8.656,-3.671 -3.433,0 -6.543,1.394 -8.66,3.671"
                 style="fill:#231f20;fill-opacity:1;fill-rule:nonzero;stroke:none"
                 id="path62"
                 inkscape:connector-curvature="0" /><path
                 d="m 296.043,55.25 c 1.797,0 2.715,0.402 3.352,1.039 0.64,0.641 1.039,1.559 1.039,2.555 0,0.996 -0.399,1.914 -1.039,2.554 -0.637,0.637 -1.555,1.036 -3.352,1.036 l -5.586,0 0,-7.184 5.586,0 z m -5.586,-3.789 0,-13.168 -3.988,0 0,27.934 9.773,0 c 2.555,0 4.153,-0.602 5.43,-1.637 1.676,-1.356 2.75,-3.434 2.75,-5.746 0,-2.317 -1.074,-4.391 -2.75,-5.746 -0.879,-0.719 -1.879,-1.239 -3.274,-1.477 l 10.016,-13.328 -4.828,0 -9.938,13.168 -3.191,0"
                 style="fill:#231f20;fill-opacity:1;fill-rule:nonzero;stroke:none"
                 id="path64"
                 inkscape:connector-curvature="0" /><path
                 d="m 339.812,43.082 c -2.394,-3.031 -6.542,-5.187 -10.855,-5.187 -8.34,0 -14.484,6.105 -14.484,14.367 0,8.058 6.066,14.363 14.125,14.363 3.992,0 7.781,-1.637 10.214,-4.309 l -2.671,-2.636 c -1.637,1.797 -4.547,3.152 -7.543,3.152 -5.703,0 -10.133,-4.547 -10.133,-10.57 0,-6.309 4.547,-10.574 10.492,-10.574 2.953,0 5.387,1.117 6.863,2.589 l 0,7.184 -7.98,0 0,3.789 11.972,0 0,-12.168"
                 style="fill:#231f20;fill-opacity:1;fill-rule:nonzero;stroke:none"
                 id="path66"
                 inkscape:connector-curvature="0" /></g></g></g></g></g><text
       xml:space="preserve"
       style="font-size:144px;font-style:normal;font-variant:normal;font-weight:normal;font-stretch:normal;line-height:125%;letter-spacing:0px;word-spacing:0px;fill:#000000;fill-opacity:1;stroke:none;font-family:DejaVu Sans;-inkscape-font-specification:DejaVu Sans"
       x="-571.63922"
       y="-235.47198"
       id="text3043"
       sodipodi:linespacing="125%"
       transform="matrix(0.8,0,0,-0.8,0,292.48098)"><tspan
         sodipodi:role="line"
         id="tspan3045"
         x="-571.63922"
         y="-235.47198" /></text>
<text
       xml:space="preserve"
       style="font-size:144px;font-style:normal;font-variant:normal;font-weight:normal;font-stretch:normal;line-height:125%;letter-spacing:0px;word-spacing:0px;fill:#000000;fill-opacity:1;stroke:none;font-family:DejaVu Sans;-inkscape-font-specification:DejaVu Sans"
       x="-430.66586"
       y="-247.86523"
       id="text3047"
       sodipodi:linespacing="125%"
       transform="matrix(0.8,0,0,-0.8,0,292.48098)"><tspan
         sodipodi:role="line"
         id="tspan3049"
         x="-430.66586"
         y="-247.86523" /></text>
</g><g
     inkscape:groupmode="layer"
     id="layer1"
     inkscape:label="Ebene"
     style="opacity:0.68686865"
     transform="translate(0,106.37877)"><g
       id="g3105"
       transform="matrix(1.2948778,0.20524361,-0.20524361,1.2948778,288.31921,443.6372)"
       style="fill:url(#linearGradient5387);fill-opacity:1;fill-rule:nonzero;stroke:#ffffff;stroke-width:1.89999998;stroke-miterlimit:4;stroke-opacity:1;stroke-dasharray:none"><text
         transform="matrix(0.8645341,-0.50257416,0.50257416,0.8645341,0,0)"
         sodipodi:linespacing="125%"
         id="text3051"
         y="-148.66508"
         x="-122.06996"
         style="font-size:143.99998474px;font-style:normal;font-variant:normal;font-weight:normal;font-stretch:normal;line-height:125%;letter-spacing:0px;word-spacing:0px;fill:url(#linearGradient3343);fill-opacity:1;fill-rule:nonzero;stroke:#ffffff;stroke-width:1.89999998;stroke-miterlimit:4;stroke-opacity:1;stroke-dasharray:none;font-family:DejaVu Sans;-inkscape-font-specification:DejaVu Sans"
         xml:space="preserve"><tspan
           style="font-size:120px;fill:url(#linearGradient3343);fill-opacity:1;fill-rule:nonzero;stroke:#ffffff;stroke-width:1.89999998;stroke-miterlimit:4;stroke-opacity:1;stroke-dasharray:none"
           y="-148.66508"
           x="-122.06996"
           id="tspan3053"
           sodipodi:role="line">L</tspan></text>
<text
         transform="matrix(0.86453411,-0.50257415,0.50257415,0.86453411,0,0)"
         sodipodi:linespacing="125%"
         id="text3055"
         y="-129.99844"
         x="-55.218262"
         style="font-size:144px;font-style:normal;font-variant:normal;font-weight:normal;font-stretch:normal;line-height:125%;letter-spacing:0px;word-spacing:0px;fill:url(#linearGradient3345);fill-opacity:1;fill-rule:nonzero;stroke:#ffffff;stroke-width:1.89999998;stroke-miterlimit:4;stroke-opacity:1;stroke-dasharray:none;font-family:DejaVu Sans;-inkscape-font-specification:DejaVu Sans"
         xml:space="preserve"><tspan
           style="font-size:120px;fill:url(#linearGradient3345);fill-opacity:1;fill-rule:nonzero;stroke:#ffffff;stroke-width:1.89999998;stroke-miterlimit:4;stroke-opacity:1;stroke-dasharray:none"
           y="-129.99844"
           x="-55.218262"
           id="tspan3057"
           sodipodi:role="line">a</tspan></text>
<text
         transform="matrix(0.8645341,-0.50257416,0.50257416,0.8645341,0,0)"
         sodipodi:linespacing="125%"
         id="text3059"
         y="-138.99956"
         x="-9.5115137"
         style="font-size:143.99998474px;font-style:normal;font-variant:normal;font-weight:normal;font-stretch:normal;line-height:125%;letter-spacing:0px;word-spacing:0px;fill:url(#linearGradient3347);fill-opacity:1;fill-rule:nonzero;stroke:#ffffff;stroke-width:1.89999998;stroke-miterlimit:4;stroke-opacity:1;stroke-dasharray:none;font-family:DejaVu Sans;-inkscape-font-specification:DejaVu Sans"
         xml:space="preserve"><tspan
           y="-138.99956"
           x="-9.5115137"
           id="tspan3061"
           sodipodi:role="line"
           style="fill:url(#linearGradient3347);fill-opacity:1;fill-rule:nonzero;stroke:#ffffff;stroke-width:1.89999998;stroke-miterlimit:4;stroke-opacity:1;stroke-dasharray:none">T</tspan></text>
<text
         transform="matrix(0.8645341,-0.50257416,0.50257416,0.8645341,0,0)"
         sodipodi:linespacing="125%"
         id="text3063"
         y="-142.11383"
         x="43.999287"
         style="font-size:143.99998474px;font-style:normal;font-variant:normal;font-weight:normal;font-stretch:normal;line-height:125%;letter-spacing:0px;word-spacing:0px;fill:url(#linearGradient3349);fill-opacity:1;fill-rule:nonzero;stroke:#ffffff;stroke-width:1.89999998;stroke-miterlimit:4;stroke-opacity:1;stroke-dasharray:none;font-family:DejaVu Sans;-inkscape-font-specification:DejaVu Sans"
         xml:space="preserve"><tspan
           style="font-size:121px;fill:url(#linearGradient3349);fill-opacity:1;fill-rule:nonzero;stroke:#ffffff;stroke-width:1.89999998;stroke-miterlimit:4;stroke-opacity:1;stroke-dasharray:none"
           y="-142.11383"
           x="43.999287"
           id="tspan3065"
           sodipodi:role="line">e</tspan></text>
<text
         transform="matrix(0.8645341,-0.50257416,0.50257416,0.8645341,0,0)"
         sodipodi:linespacing="125%"
         id="text3067"
         y="-119.99125"
         x="103.62694"
         style="font-size:143.99998474px;font-style:normal;font-variant:normal;font-weight:normal;font-stretch:normal;line-height:125%;letter-spacing:0px;word-spacing:0px;fill:url(#linearGradient3351);fill-opacity:1;fill-rule:nonzero;stroke:#ffffff;stroke-width:1.89999998;stroke-miterlimit:4;stroke-opacity:1;stroke-dasharray:none;font-family:DejaVu Sans;-inkscape-font-specification:DejaVu Sans"
         xml:space="preserve"><tspan
           y="-119.99125"
           x="103.62694"
           id="tspan3069"
           sodipodi:role="line"
           style="fill:url(#linearGradient3351);fill-opacity:1;fill-rule:nonzero;stroke:#ffffff;stroke-width:1.89999998;stroke-miterlimit:4;stroke-opacity:1;stroke-dasharray:none">X</tspan></text>
</g></g></svg>